<mxfile host="app.diagrams.net" modified="2023-12-05T03:59:55.802Z" agent="Mozilla/5.0 (Windows NT 10.0; Win64; x64) AppleWebKit/537.36 (KHTML, like Gecko) Chrome/119.0.0.0 Safari/537.36" etag="eVXSxB5kB0SJZOZsbBpt" version="22.1.5" type="device">
  <diagram name="Page-1" id="d5ddZ4M49YCSkChYkquJ">
    <mxGraphModel dx="2261" dy="746" grid="0" gridSize="10" guides="1" tooltips="1" connect="1" arrows="1" fold="1" page="1" pageScale="1" pageWidth="827" pageHeight="1169" math="0" shadow="0">
      <root>
        <mxCell id="0" />
        <mxCell id="1" parent="0" />
        <mxCell id="OVE2ISOjPZUu7oPJqmAL-1" value="UTILISATEURS" style="shape=umlActor;verticalLabelPosition=bottom;verticalAlign=top;html=1;outlineConnect=0;movable=1;resizable=1;rotatable=1;deletable=1;editable=1;locked=0;connectable=1;fillColor=#ffe6cc;strokeColor=#d79b00;rounded=1;" parent="1" vertex="1">
          <mxGeometry x="80" y="159" width="70" height="150" as="geometry" />
        </mxCell>
        <mxCell id="5N7NR7PT961fCCxJH5FV-5" value="ELFES" style="shape=umlActor;verticalLabelPosition=bottom;verticalAlign=top;html=1;outlineConnect=0;fillColor=#ffe6cc;strokeColor=#d79b00;rounded=1;" parent="1" vertex="1">
          <mxGeometry x="80" y="481" width="70" height="150" as="geometry" />
        </mxCell>
        <mxCell id="5N7NR7PT961fCCxJH5FV-6" value="ADMINISTRATEUR (Pére Noël)" style="shape=umlActor;verticalLabelPosition=bottom;verticalAlign=top;html=1;outlineConnect=0;fillColor=#ffe6cc;strokeColor=#d79b00;rounded=1;" parent="1" vertex="1">
          <mxGeometry x="80" y="800" width="70" height="150" as="geometry" />
        </mxCell>
        <mxCell id="5N7NR7PT961fCCxJH5FV-27" value="" style="ellipse;whiteSpace=wrap;html=1;rounded=1;" parent="1" vertex="1">
          <mxGeometry x="206" y="229" width="120" height="80" as="geometry" />
        </mxCell>
        <mxCell id="5N7NR7PT961fCCxJH5FV-28" value="" style="ellipse;whiteSpace=wrap;html=1;rounded=1;" parent="1" vertex="1">
          <mxGeometry x="150" y="82" width="120" height="72" as="geometry" />
        </mxCell>
        <mxCell id="5N7NR7PT961fCCxJH5FV-29" value="" style="ellipse;whiteSpace=wrap;html=1;rounded=1;" parent="1" vertex="1">
          <mxGeometry x="317" y="93" width="120" height="80" as="geometry" />
        </mxCell>
        <mxCell id="5N7NR7PT961fCCxJH5FV-30" value="" style="ellipse;whiteSpace=wrap;html=1;rounded=1;" parent="1" vertex="1">
          <mxGeometry x="475" y="113" width="120" height="80" as="geometry" />
        </mxCell>
        <mxCell id="5N7NR7PT961fCCxJH5FV-32" value="ECRIRE LETTRES&lt;br&gt;" style="text;html=1;strokeColor=none;fillColor=none;align=center;verticalAlign=middle;whiteSpace=wrap;rounded=1;" parent="1" vertex="1">
          <mxGeometry x="177" y="101" width="60" height="28" as="geometry" />
        </mxCell>
        <mxCell id="5N7NR7PT961fCCxJH5FV-33" value="CONTACTER LE SITE&lt;br&gt;" style="text;html=1;strokeColor=none;fillColor=none;align=center;verticalAlign=middle;whiteSpace=wrap;rounded=1;" parent="1" vertex="1">
          <mxGeometry x="502" y="138" width="60" height="30" as="geometry" />
        </mxCell>
        <mxCell id="5N7NR7PT961fCCxJH5FV-34" value="CONSULTER LES CADEAUX ET LE SITE" style="text;html=1;strokeColor=none;fillColor=none;align=center;verticalAlign=middle;whiteSpace=wrap;rounded=1;" parent="1" vertex="1">
          <mxGeometry x="233" y="250" width="60" height="30" as="geometry" />
        </mxCell>
        <mxCell id="5N7NR7PT961fCCxJH5FV-40" value="" style="ellipse;whiteSpace=wrap;html=1;rounded=1;" parent="1" vertex="1">
          <mxGeometry x="267" y="456" width="120" height="80" as="geometry" />
        </mxCell>
        <mxCell id="5N7NR7PT961fCCxJH5FV-41" value="GERER LES CADEAUX&lt;br&gt;" style="text;html=1;strokeColor=none;fillColor=none;align=center;verticalAlign=middle;whiteSpace=wrap;rounded=1;" parent="1" vertex="1">
          <mxGeometry x="293" y="481" width="60" height="30" as="geometry" />
        </mxCell>
        <mxCell id="5N7NR7PT961fCCxJH5FV-42" value="" style="ellipse;whiteSpace=wrap;html=1;rounded=1;" parent="1" vertex="1">
          <mxGeometry x="576" y="430" width="218" height="150" as="geometry" />
        </mxCell>
        <mxCell id="5N7NR7PT961fCCxJH5FV-43" value="SE CONNECTER" style="text;html=1;align=center;verticalAlign=middle;whiteSpace=wrap;rounded=1;" parent="1" vertex="1">
          <mxGeometry x="648" y="461" width="70" height="29" as="geometry" />
        </mxCell>
        <mxCell id="5N7NR7PT961fCCxJH5FV-44" value="" style="endArrow=none;html=1;rounded=1;exitX=0.02;exitY=0.615;exitDx=0;exitDy=0;exitPerimeter=0;entryX=0.5;entryY=0.5;entryDx=0;entryDy=0;entryPerimeter=0;" parent="1" source="5N7NR7PT961fCCxJH5FV-29" target="OVE2ISOjPZUu7oPJqmAL-1" edge="1">
          <mxGeometry width="50" height="50" relative="1" as="geometry">
            <mxPoint x="320" y="140" as="sourcePoint" />
            <mxPoint x="120" y="180" as="targetPoint" />
          </mxGeometry>
        </mxCell>
        <mxCell id="5N7NR7PT961fCCxJH5FV-47" value="" style="endArrow=none;html=1;rounded=1;exitX=0.5;exitY=0.5;exitDx=0;exitDy=0;exitPerimeter=0;entryX=0.033;entryY=0.263;entryDx=0;entryDy=0;entryPerimeter=0;" parent="1" source="OVE2ISOjPZUu7oPJqmAL-1" target="5N7NR7PT961fCCxJH5FV-27" edge="1">
          <mxGeometry width="50" height="50" relative="1" as="geometry">
            <mxPoint x="104.01" y="195.39" as="sourcePoint" />
            <mxPoint x="159.99634823690394" y="239.0004186266409" as="targetPoint" />
          </mxGeometry>
        </mxCell>
        <mxCell id="5N7NR7PT961fCCxJH5FV-53" value="" style="endArrow=none;html=1;rounded=1;entryX=0;entryY=1;entryDx=0;entryDy=0;exitX=0.5;exitY=0.5;exitDx=0;exitDy=0;exitPerimeter=0;" parent="1" source="OVE2ISOjPZUu7oPJqmAL-1" target="5N7NR7PT961fCCxJH5FV-28" edge="1">
          <mxGeometry width="50" height="50" relative="1" as="geometry">
            <mxPoint x="120" y="180" as="sourcePoint" />
            <mxPoint x="180" y="100" as="targetPoint" />
          </mxGeometry>
        </mxCell>
        <mxCell id="5N7NR7PT961fCCxJH5FV-56" value="DEPOSER UN AVIS" style="text;html=1;strokeColor=none;fillColor=none;align=center;verticalAlign=middle;whiteSpace=wrap;rounded=1;" parent="1" vertex="1">
          <mxGeometry x="342" y="113" width="60" height="30" as="geometry" />
        </mxCell>
        <mxCell id="5N7NR7PT961fCCxJH5FV-57" value="" style="endArrow=none;html=1;rounded=1;entryX=0.022;entryY=0.683;entryDx=0;entryDy=0;entryPerimeter=0;exitX=0.5;exitY=0.5;exitDx=0;exitDy=0;exitPerimeter=0;" parent="1" source="5N7NR7PT961fCCxJH5FV-5" target="5N7NR7PT961fCCxJH5FV-81" edge="1">
          <mxGeometry width="50" height="50" relative="1" as="geometry">
            <mxPoint x="111.4" y="475.36" as="sourcePoint" />
            <mxPoint x="369.9999999999999" y="414" as="targetPoint" />
          </mxGeometry>
        </mxCell>
        <mxCell id="5N7NR7PT961fCCxJH5FV-69" value="" style="ellipse;whiteSpace=wrap;html=1;rounded=1;" parent="1" vertex="1">
          <mxGeometry x="267" y="990" width="120" height="80" as="geometry" />
        </mxCell>
        <mxCell id="5N7NR7PT961fCCxJH5FV-70" value="" style="ellipse;whiteSpace=wrap;html=1;rounded=1;" parent="1" vertex="1">
          <mxGeometry x="310" y="755" width="120" height="80" as="geometry" />
        </mxCell>
        <mxCell id="5N7NR7PT961fCCxJH5FV-71" value="" style="ellipse;whiteSpace=wrap;html=1;rounded=1;" parent="1" vertex="1">
          <mxGeometry x="360" y="840" width="130" height="80" as="geometry" />
        </mxCell>
        <mxCell id="5N7NR7PT961fCCxJH5FV-72" value="" style="ellipse;whiteSpace=wrap;html=1;rounded=1;" parent="1" vertex="1">
          <mxGeometry x="400" y="933" width="152" height="120" as="geometry" />
        </mxCell>
        <mxCell id="5N7NR7PT961fCCxJH5FV-74" value="GERER&amp;nbsp; LES ELFES" style="text;html=1;strokeColor=none;fillColor=none;align=center;verticalAlign=middle;whiteSpace=wrap;rounded=1;" parent="1" vertex="1">
          <mxGeometry x="340" y="780" width="60" height="30" as="geometry" />
        </mxCell>
        <mxCell id="5N7NR7PT961fCCxJH5FV-80" value="" style="endArrow=none;dashed=1;html=1;dashPattern=1 3;strokeWidth=2;rounded=1;" parent="1" target="5N7NR7PT961fCCxJH5FV-42" edge="1">
          <mxGeometry width="50" height="50" relative="1" as="geometry">
            <mxPoint x="390" y="490" as="sourcePoint" />
            <mxPoint x="620" y="620" as="targetPoint" />
            <Array as="points" />
          </mxGeometry>
        </mxCell>
        <mxCell id="5N7NR7PT961fCCxJH5FV-81" value="" style="ellipse;whiteSpace=wrap;html=1;rounded=1;" parent="1" vertex="1">
          <mxGeometry x="350" y="366" width="120" height="80" as="geometry" />
        </mxCell>
        <mxCell id="5N7NR7PT961fCCxJH5FV-84" value="GERER LEUR COMPTE PERSONNEL" style="text;html=1;strokeColor=none;fillColor=none;align=center;verticalAlign=middle;whiteSpace=wrap;rounded=1;" parent="1" vertex="1">
          <mxGeometry x="380" y="391" width="60" height="30" as="geometry" />
        </mxCell>
        <mxCell id="5N7NR7PT961fCCxJH5FV-95" value="" style="endArrow=none;html=1;rounded=1;entryX=0.022;entryY=0.68;entryDx=0;entryDy=0;entryPerimeter=0;exitX=0.5;exitY=0.5;exitDx=0;exitDy=0;exitPerimeter=0;" parent="1" source="OVE2ISOjPZUu7oPJqmAL-1" target="5N7NR7PT961fCCxJH5FV-30" edge="1">
          <mxGeometry width="50" height="50" relative="1" as="geometry">
            <mxPoint x="-38" y="172" as="sourcePoint" />
            <mxPoint x="434" y="220" as="targetPoint" />
          </mxGeometry>
        </mxCell>
        <mxCell id="5N7NR7PT961fCCxJH5FV-96" value="" style="ellipse;whiteSpace=wrap;html=1;rounded=1;" parent="1" vertex="1">
          <mxGeometry x="220" y="555" width="120" height="80" as="geometry" />
        </mxCell>
        <mxCell id="5N7NR7PT961fCCxJH5FV-98" value="VALIDER LES LETTRES" style="text;html=1;strokeColor=none;fillColor=none;align=center;verticalAlign=middle;whiteSpace=wrap;rounded=1;" parent="1" vertex="1">
          <mxGeometry x="250" y="580" width="60" height="30" as="geometry" />
        </mxCell>
        <mxCell id="5N7NR7PT961fCCxJH5FV-99" value="" style="endArrow=none;html=1;rounded=1;entryX=0;entryY=0;entryDx=0;entryDy=0;exitX=0.5;exitY=0.5;exitDx=0;exitDy=0;exitPerimeter=0;" parent="1" source="5N7NR7PT961fCCxJH5FV-5" target="5N7NR7PT961fCCxJH5FV-96" edge="1">
          <mxGeometry width="50" height="50" relative="1" as="geometry">
            <mxPoint x="124" y="465" as="sourcePoint" />
            <mxPoint x="242" y="543" as="targetPoint" />
          </mxGeometry>
        </mxCell>
        <mxCell id="5N7NR7PT961fCCxJH5FV-106" value="PRENDRE CONNAISSANCE DES LETTRES DES ENFANTS ET LEUR REPONDRE&lt;br&gt;" style="text;html=1;strokeColor=none;fillColor=none;align=center;verticalAlign=middle;whiteSpace=wrap;rounded=1;" parent="1" vertex="1">
          <mxGeometry x="446" y="975" width="60" height="30" as="geometry" />
        </mxCell>
        <mxCell id="5N7NR7PT961fCCxJH5FV-108" style="edgeStyle=orthogonalEdgeStyle;rounded=1;orthogonalLoop=1;jettySize=auto;html=1;exitX=0.5;exitY=1;exitDx=0;exitDy=0;" parent="1" source="5N7NR7PT961fCCxJH5FV-106" target="5N7NR7PT961fCCxJH5FV-106" edge="1">
          <mxGeometry relative="1" as="geometry" />
        </mxCell>
        <mxCell id="5N7NR7PT961fCCxJH5FV-109" value="" style="endArrow=none;html=1;rounded=1;entryX=0;entryY=0.5;entryDx=0;entryDy=0;exitX=0.5;exitY=0.5;exitDx=0;exitDy=0;exitPerimeter=0;" parent="1" source="5N7NR7PT961fCCxJH5FV-5" target="5N7NR7PT961fCCxJH5FV-40" edge="1">
          <mxGeometry width="50" height="50" relative="1" as="geometry">
            <mxPoint x="47" y="501" as="sourcePoint" />
            <mxPoint x="353" y="436" as="targetPoint" />
          </mxGeometry>
        </mxCell>
        <mxCell id="5N7NR7PT961fCCxJH5FV-111" value="GERER LE SITE" style="text;html=1;strokeColor=none;fillColor=none;align=center;verticalAlign=middle;whiteSpace=wrap;rounded=1;" parent="1" vertex="1">
          <mxGeometry x="400" y="860" width="60" height="30" as="geometry" />
        </mxCell>
        <mxCell id="5N7NR7PT961fCCxJH5FV-112" value="" style="ellipse;whiteSpace=wrap;html=1;rounded=1;" parent="1" vertex="1">
          <mxGeometry x="183" y="330" width="127" height="86" as="geometry" />
        </mxCell>
        <mxCell id="5N7NR7PT961fCCxJH5FV-113" value="" style="ellipse;whiteSpace=wrap;html=1;rounded=1;" parent="1" vertex="1">
          <mxGeometry x="186.5" y="700" width="120" height="80" as="geometry" />
        </mxCell>
        <mxCell id="5N7NR7PT961fCCxJH5FV-116" value="CONSULTER LES CADEAUX ET LE SITE" style="text;html=1;strokeColor=none;fillColor=none;align=center;verticalAlign=middle;whiteSpace=wrap;rounded=1;" parent="1" vertex="1">
          <mxGeometry x="213" y="361" width="60" height="30" as="geometry" />
        </mxCell>
        <mxCell id="5N7NR7PT961fCCxJH5FV-120" value="" style="endArrow=none;dashed=1;html=1;dashPattern=1 3;strokeWidth=2;rounded=1;exitX=1.023;exitY=0.398;exitDx=0;exitDy=0;exitPerimeter=0;entryX=0.009;entryY=0.6;entryDx=0;entryDy=0;entryPerimeter=0;" parent="1" source="5N7NR7PT961fCCxJH5FV-96" target="5N7NR7PT961fCCxJH5FV-42" edge="1">
          <mxGeometry width="50" height="50" relative="1" as="geometry">
            <mxPoint x="506.18000000000006" y="579.44" as="sourcePoint" />
            <mxPoint x="570" y="520" as="targetPoint" />
            <Array as="points">
              <mxPoint x="490" y="550" />
            </Array>
          </mxGeometry>
        </mxCell>
        <mxCell id="5N7NR7PT961fCCxJH5FV-125" value="CONSULTER LES CADEAUX ET LE SITE" style="text;html=1;strokeColor=none;fillColor=none;align=center;verticalAlign=middle;whiteSpace=wrap;rounded=1;" parent="1" vertex="1">
          <mxGeometry x="297" y="1015" width="60" height="30" as="geometry" />
        </mxCell>
        <mxCell id="5N7NR7PT961fCCxJH5FV-132" value="GERER LES CADEAUX&lt;br&gt;" style="text;html=1;strokeColor=none;fillColor=none;align=center;verticalAlign=middle;whiteSpace=wrap;rounded=1;" parent="1" vertex="1">
          <mxGeometry x="213" y="723" width="60" height="30" as="geometry" />
        </mxCell>
        <mxCell id="5N7NR7PT961fCCxJH5FV-134" value="" style="endArrow=none;dashed=1;html=1;dashPattern=1 3;strokeWidth=2;rounded=1;entryX=0.204;entryY=0.901;entryDx=0;entryDy=0;exitX=1;exitY=0.347;exitDx=0;exitDy=0;exitPerimeter=0;entryPerimeter=0;" parent="1" source="5N7NR7PT961fCCxJH5FV-70" target="5N7NR7PT961fCCxJH5FV-42" edge="1">
          <mxGeometry width="50" height="50" relative="1" as="geometry">
            <mxPoint x="549.5799999999999" y="711.31" as="sourcePoint" />
            <mxPoint x="924" y="747" as="targetPoint" />
            <Array as="points" />
          </mxGeometry>
        </mxCell>
        <mxCell id="5N7NR7PT961fCCxJH5FV-135" value="" style="endArrow=none;dashed=1;html=1;dashPattern=1 3;strokeWidth=2;rounded=1;entryX=0.278;entryY=0.957;entryDx=0;entryDy=0;exitX=1;exitY=0;exitDx=0;exitDy=0;entryPerimeter=0;" parent="1" source="5N7NR7PT961fCCxJH5FV-71" target="5N7NR7PT961fCCxJH5FV-42" edge="1">
          <mxGeometry width="50" height="50" relative="1" as="geometry">
            <mxPoint x="558.48" y="755.25" as="sourcePoint" />
            <mxPoint x="681" y="728" as="targetPoint" />
            <Array as="points" />
          </mxGeometry>
        </mxCell>
        <mxCell id="5N7NR7PT961fCCxJH5FV-137" value="" style="endArrow=none;dashed=1;html=1;dashPattern=1 3;strokeWidth=2;rounded=1;entryX=0.308;entryY=0.947;entryDx=0;entryDy=0;exitX=0.739;exitY=0.062;exitDx=0;exitDy=0;exitPerimeter=0;entryPerimeter=0;" parent="1" source="5N7NR7PT961fCCxJH5FV-72" target="5N7NR7PT961fCCxJH5FV-42" edge="1">
          <mxGeometry width="50" height="50" relative="1" as="geometry">
            <mxPoint x="580.78" y="821.71" as="sourcePoint" />
            <mxPoint x="1023" y="633" as="targetPoint" />
            <Array as="points" />
          </mxGeometry>
        </mxCell>
        <mxCell id="5N7NR7PT961fCCxJH5FV-138" value="" style="endArrow=none;html=1;rounded=1;exitX=0.5;exitY=0.5;exitDx=0;exitDy=0;exitPerimeter=0;" parent="1" source="5N7NR7PT961fCCxJH5FV-6" target="5N7NR7PT961fCCxJH5FV-113" edge="1">
          <mxGeometry width="50" height="50" relative="1" as="geometry">
            <mxPoint x="170" y="1110" as="sourcePoint" />
            <mxPoint x="398" y="1021" as="targetPoint" />
          </mxGeometry>
        </mxCell>
        <mxCell id="5N7NR7PT961fCCxJH5FV-141" value="" style="endArrow=none;html=1;rounded=1;exitX=0.5;exitY=0.5;exitDx=0;exitDy=0;exitPerimeter=0;entryX=0.013;entryY=0.598;entryDx=0;entryDy=0;entryPerimeter=0;" parent="1" source="5N7NR7PT961fCCxJH5FV-6" target="5N7NR7PT961fCCxJH5FV-70" edge="1">
          <mxGeometry width="50" height="50" relative="1" as="geometry">
            <mxPoint x="140" y="1040" as="sourcePoint" />
            <mxPoint x="239" y="936" as="targetPoint" />
          </mxGeometry>
        </mxCell>
        <mxCell id="5N7NR7PT961fCCxJH5FV-142" value="" style="endArrow=none;html=1;rounded=1;exitX=0.5;exitY=0.5;exitDx=0;exitDy=0;exitPerimeter=0;entryX=0;entryY=0.5;entryDx=0;entryDy=0;" parent="1" source="5N7NR7PT961fCCxJH5FV-6" target="5N7NR7PT961fCCxJH5FV-71" edge="1">
          <mxGeometry width="50" height="50" relative="1" as="geometry">
            <mxPoint x="115" y="878" as="sourcePoint" />
            <mxPoint x="259" y="1016" as="targetPoint" />
          </mxGeometry>
        </mxCell>
        <mxCell id="5N7NR7PT961fCCxJH5FV-143" value="" style="endArrow=none;html=1;rounded=1;entryX=-0.012;entryY=0.362;entryDx=0;entryDy=0;entryPerimeter=0;exitX=0.5;exitY=0.5;exitDx=0;exitDy=0;exitPerimeter=0;" parent="1" source="5N7NR7PT961fCCxJH5FV-6" target="5N7NR7PT961fCCxJH5FV-72" edge="1">
          <mxGeometry width="50" height="50" relative="1" as="geometry">
            <mxPoint x="160" y="850" as="sourcePoint" />
            <mxPoint x="239" y="966" as="targetPoint" />
          </mxGeometry>
        </mxCell>
        <mxCell id="5N7NR7PT961fCCxJH5FV-144" value="" style="endArrow=none;html=1;rounded=1;exitX=0.5;exitY=0.5;exitDx=0;exitDy=0;exitPerimeter=0;" parent="1" source="5N7NR7PT961fCCxJH5FV-6" target="5N7NR7PT961fCCxJH5FV-69" edge="1">
          <mxGeometry width="50" height="50" relative="1" as="geometry">
            <mxPoint x="470" y="1120" as="sourcePoint" />
            <mxPoint x="569" y="1016" as="targetPoint" />
          </mxGeometry>
        </mxCell>
        <mxCell id="5N7NR7PT961fCCxJH5FV-168" value="" style="endArrow=none;dashed=1;html=1;dashPattern=1 3;strokeWidth=2;rounded=1;entryX=0.057;entryY=0.756;entryDx=0;entryDy=0;exitX=0.988;exitY=0.315;exitDx=0;exitDy=0;exitPerimeter=0;entryPerimeter=0;" parent="1" source="5N7NR7PT961fCCxJH5FV-113" target="5N7NR7PT961fCCxJH5FV-42" edge="1">
          <mxGeometry width="50" height="50" relative="1" as="geometry">
            <mxPoint x="305" y="725" as="sourcePoint" />
            <mxPoint x="470" y="665" as="targetPoint" />
            <Array as="points" />
          </mxGeometry>
        </mxCell>
        <mxCell id="5N7NR7PT961fCCxJH5FV-174" value="" style="endArrow=none;dashed=1;html=1;dashPattern=1 3;strokeWidth=2;rounded=1;exitX=0.98;exitY=0.7;exitDx=0;exitDy=0;exitPerimeter=0;entryX=0.063;entryY=0.305;entryDx=0;entryDy=0;entryPerimeter=0;" parent="1" source="5N7NR7PT961fCCxJH5FV-81" target="5N7NR7PT961fCCxJH5FV-42" edge="1">
          <mxGeometry width="50" height="50" relative="1" as="geometry">
            <mxPoint x="630" y="270" as="sourcePoint" />
            <mxPoint x="1065" y="619" as="targetPoint" />
            <Array as="points" />
          </mxGeometry>
        </mxCell>
        <mxCell id="5N7NR7PT961fCCxJH5FV-175" value="" style="endArrow=none;dashed=1;html=1;dashPattern=1 3;strokeWidth=2;rounded=0;" parent="1" source="5N7NR7PT961fCCxJH5FV-176" edge="1">
          <mxGeometry width="50" height="50" relative="1" as="geometry">
            <mxPoint x="593" y="524" as="sourcePoint" />
            <mxPoint x="753" y="524" as="targetPoint" />
          </mxGeometry>
        </mxCell>
        <mxCell id="5N7NR7PT961fCCxJH5FV-177" value="" style="endArrow=none;dashed=1;html=1;dashPattern=1 3;strokeWidth=2;rounded=0;" parent="1" target="5N7NR7PT961fCCxJH5FV-176" edge="1">
          <mxGeometry width="50" height="50" relative="1" as="geometry">
            <mxPoint x="593" y="524" as="sourcePoint" />
            <mxPoint x="753" y="524" as="targetPoint" />
          </mxGeometry>
        </mxCell>
        <mxCell id="5N7NR7PT961fCCxJH5FV-176" value="INCLUDE" style="text;html=1;strokeColor=none;fillColor=none;align=center;verticalAlign=middle;whiteSpace=wrap;rounded=0;" parent="1" vertex="1">
          <mxGeometry x="656" y="506" width="60" height="30" as="geometry" />
        </mxCell>
        <mxCell id="JfNerGsQYPNW_UzNHeGV-3" value="&lt;h1&gt;Diagramme de Cas d&#39;Utilisation&lt;/h1&gt;" style="text;html=1;strokeColor=none;fillColor=none;spacing=5;spacingTop=-20;whiteSpace=wrap;overflow=hidden;rounded=0;" parent="1" vertex="1">
          <mxGeometry x="437" y="13" width="378" height="69" as="geometry" />
        </mxCell>
        <mxCell id="JfNerGsQYPNW_UzNHeGV-4" value="Guénaël LOUËR : 04 décrmbre 2023" style="text;html=1;strokeColor=none;fillColor=none;align=center;verticalAlign=middle;whiteSpace=wrap;rounded=0;" parent="1" vertex="1">
          <mxGeometry x="-10" y="24" width="385" height="20" as="geometry" />
        </mxCell>
        <mxCell id="JfNerGsQYPNW_UzNHeGV-5" value="Le projet (secret) du Père Noel : Le village Merveilleux" style="text;html=1;strokeColor=none;fillColor=none;align=center;verticalAlign=middle;whiteSpace=wrap;rounded=0;" parent="1" vertex="1">
          <mxGeometry x="360" y="44" width="578" height="29" as="geometry" />
        </mxCell>
        <mxCell id="JfNerGsQYPNW_UzNHeGV-6" value="" style="endArrow=none;html=1;rounded=1;exitX=0.5;exitY=0.5;exitDx=0;exitDy=0;exitPerimeter=0;" parent="1" source="5N7NR7PT961fCCxJH5FV-5" target="5N7NR7PT961fCCxJH5FV-112" edge="1">
          <mxGeometry width="50" height="50" relative="1" as="geometry">
            <mxPoint x="-88" y="536" as="sourcePoint" />
            <mxPoint x="150" y="401" as="targetPoint" />
          </mxGeometry>
        </mxCell>
      </root>
    </mxGraphModel>
  </diagram>
</mxfile>
